# xmcd
#
# Track frame offsets: 
#        150
#        9630
#        19137
#        30113
#        41167
#        49336
#        57849
#        67228
#        77469
#        86151
#        95799
#        104352
#        116062
#        125360
#        133665
#        146603
#        156179
#        168783
#        179792
#        192066
#        201445
#        211462
#        223840
#        236954
#        246118
#        256552
#        265809
#        274945
#        285781
#        296491
#        307856
#        318626
#        329394
#
# Disc length: 4551 seconds
#
# Revision: 0
# Processed by: cddbd v1.5.1PL2 Copyright (c) Steve Scherf et al.
# Submitted via: ExactAudioCopy v0.95b3
#
DISCID=f011c521
DTITLE=Various Artist - Tough Texas
DYEAR=1900
DGENRE=Country
TTITLE0=Glenn Barber - Livin' High and Wide
TTITLE1=Gene Tabor - A Real Gone Jesse (I'm Hot To Trot)
TTITLE2=Dotti Jones and Winston O'Neal - I'll Be Yours
TTITLE3=Sandy Ford - Cat Man Boogie
TTITLE4=Biff Collie - Joy Joy Joy
TTITLE5=Glenn Barber - Feeling No Pain
TTITLE6=Walton and The Silver Lake Boys - Man What A Party
TTITLE7=Louisiana Lannis - Tongue Twister Boogie
TTITLE8=Louisiana Lannis - Walking Out
TTITLE9=Slim Watts - Tu-La-Lou
TTITLE10=Doug and The Swing Boys - Swingin' With Doug (Inst)
TTITLE11=Bennie Leaders - Hey Miss Fannie
TTITLE12=Bill Mack - Sue-Suzie Boogie
TTITLE13=Betty Barnes With Doug and The Swing Boys - Pepinest, Pettinest
TTITLE13=, Pappy
TTITLE14=Randy King - Be Bopping Baby
TTITLE15=Riley Crabtree - Tattle Tattle Tale
TTITLE16=Benny Barnes - No Fault Of Mine
TTITLE17=Fred Crawford - Ain't Never Gonna Get Married
TTITLE18=Fred Crawford - Can't Live With 'Em (Can't Live Without 'Em)
TTITLE19=Betty Barnes and The Four Shadows - What Would You Do
TTITLE20=Fiddling Pete Williams - Pete Williams Rag (Inst)
TTITLE21=Bennie Hess - You Are In My Heart To Stay
TTITLE22=Mack Hamilton and His Drifting Texans - Sweet Little Rosebud
TTITLE23=Fred Crawford - Me And My New Baby
TTITLE24=James O'Gwynn and His Cry-Babies - Ready For Freddie
TTITLE25=James O'Gwynn and His Cry-Babies - I Wish You Wuz My Darling Bu
TTITLE25=t You Ain't
TTITLE26=Biff Collie - Goodbye, Farewell, So Long
TTITLE27=Buddy Dee String Band - Shuffle The Blues (Inst)
TTITLE28=James O'Gwynn and His Cra-Babies - Love In An Old Fashioned Way
TTITLE29=Glenn Barber - Styles And Ways Of The World
TTITLE30=Ken 'Peewee' Short - Big Time Gal
TTITLE31=Peck Touchton - Let Me Catch My Breath
TTITLE32=Mack Hamilton and His Drifting Texans - Moaning In The Morning
EXTD=
EXTT0=
EXTT1=
EXTT2=
EXTT3=
EXTT4=
EXTT5=
EXTT6=
EXTT7=
EXTT8=
EXTT9=
EXTT10=
EXTT11=
EXTT12=
EXTT13=
EXTT14=
EXTT15=
EXTT16=
EXTT17=
EXTT18=
EXTT19=
EXTT20=
EXTT21=
EXTT22=
EXTT23=
EXTT24=
EXTT25=
EXTT26=
EXTT27=
EXTT28=
EXTT29=
EXTT30=
EXTT31=
EXTT32=
PLAYORDER=
